<mxfile host="app.diagrams.net" modified="2024-07-04T16:14:03.316Z" agent="Mozilla/5.0 (Macintosh; Intel Mac OS X 10_15_7) AppleWebKit/605.1.15 (KHTML, like Gecko) Version/17.5 Safari/605.1.15" etag="Et0j97BNdmDASXUEe0RB" version="24.6.4" type="device">
  <diagram id="C5RBs43oDa-KdzZeNtuy" name="Page-1">
    <mxGraphModel dx="2074" dy="802" grid="1" gridSize="10" guides="1" tooltips="1" connect="1" arrows="1" fold="1" page="1" pageScale="1" pageWidth="827" pageHeight="1169" math="0" shadow="0">
      <root>
        <mxCell id="WIyWlLk6GJQsqaUBKTNV-0" />
        <mxCell id="WIyWlLk6GJQsqaUBKTNV-1" parent="WIyWlLk6GJQsqaUBKTNV-0" />
        <mxCell id="20fMWqvZLDc1XGUT310H-5" style="edgeStyle=orthogonalEdgeStyle;rounded=0;orthogonalLoop=1;jettySize=auto;html=1;exitX=0.5;exitY=1;exitDx=0;exitDy=0;entryX=0.5;entryY=0;entryDx=0;entryDy=0;" edge="1" parent="WIyWlLk6GJQsqaUBKTNV-1" source="20fMWqvZLDc1XGUT310H-0" target="20fMWqvZLDc1XGUT310H-1">
          <mxGeometry relative="1" as="geometry" />
        </mxCell>
        <mxCell id="20fMWqvZLDc1XGUT310H-0" value="" style="ellipse;whiteSpace=wrap;html=1;aspect=fixed;fillColor=#000000;" vertex="1" parent="WIyWlLk6GJQsqaUBKTNV-1">
          <mxGeometry x="400" y="40" width="40" height="40" as="geometry" />
        </mxCell>
        <mxCell id="20fMWqvZLDc1XGUT310H-4" style="edgeStyle=orthogonalEdgeStyle;rounded=0;orthogonalLoop=1;jettySize=auto;html=1;exitX=0.5;exitY=1;exitDx=0;exitDy=0;entryX=0.5;entryY=0;entryDx=0;entryDy=0;" edge="1" parent="WIyWlLk6GJQsqaUBKTNV-1" source="20fMWqvZLDc1XGUT310H-1" target="20fMWqvZLDc1XGUT310H-3">
          <mxGeometry relative="1" as="geometry" />
        </mxCell>
        <mxCell id="20fMWqvZLDc1XGUT310H-1" value="Admin Panel" style="rounded=1;whiteSpace=wrap;html=1;" vertex="1" parent="WIyWlLk6GJQsqaUBKTNV-1">
          <mxGeometry x="360" y="120" width="120" height="30" as="geometry" />
        </mxCell>
        <mxCell id="20fMWqvZLDc1XGUT310H-8" style="edgeStyle=orthogonalEdgeStyle;rounded=0;orthogonalLoop=1;jettySize=auto;html=1;exitX=0;exitY=0.5;exitDx=0;exitDy=0;entryX=0.5;entryY=0;entryDx=0;entryDy=0;" edge="1" parent="WIyWlLk6GJQsqaUBKTNV-1" source="20fMWqvZLDc1XGUT310H-3" target="20fMWqvZLDc1XGUT310H-6">
          <mxGeometry relative="1" as="geometry" />
        </mxCell>
        <mxCell id="20fMWqvZLDc1XGUT310H-9" style="edgeStyle=orthogonalEdgeStyle;rounded=0;orthogonalLoop=1;jettySize=auto;html=1;exitX=1;exitY=0.5;exitDx=0;exitDy=0;entryX=0.5;entryY=0;entryDx=0;entryDy=0;" edge="1" parent="WIyWlLk6GJQsqaUBKTNV-1" source="20fMWqvZLDc1XGUT310H-3" target="20fMWqvZLDc1XGUT310H-7">
          <mxGeometry relative="1" as="geometry" />
        </mxCell>
        <mxCell id="20fMWqvZLDc1XGUT310H-54" style="edgeStyle=orthogonalEdgeStyle;rounded=0;orthogonalLoop=1;jettySize=auto;html=1;exitX=0.5;exitY=1;exitDx=0;exitDy=0;entryX=0.5;entryY=0;entryDx=0;entryDy=0;" edge="1" parent="WIyWlLk6GJQsqaUBKTNV-1" source="20fMWqvZLDc1XGUT310H-3" target="20fMWqvZLDc1XGUT310H-52">
          <mxGeometry relative="1" as="geometry" />
        </mxCell>
        <mxCell id="20fMWqvZLDc1XGUT310H-3" value="Admin Navigation" style="rhombus;whiteSpace=wrap;html=1;" vertex="1" parent="WIyWlLk6GJQsqaUBKTNV-1">
          <mxGeometry x="365" y="190" width="110" height="110" as="geometry" />
        </mxCell>
        <mxCell id="20fMWqvZLDc1XGUT310H-13" style="edgeStyle=orthogonalEdgeStyle;rounded=0;orthogonalLoop=1;jettySize=auto;html=1;exitX=0.5;exitY=1;exitDx=0;exitDy=0;entryX=0.5;entryY=0;entryDx=0;entryDy=0;" edge="1" parent="WIyWlLk6GJQsqaUBKTNV-1" source="20fMWqvZLDc1XGUT310H-6" target="20fMWqvZLDc1XGUT310H-12">
          <mxGeometry relative="1" as="geometry" />
        </mxCell>
        <mxCell id="20fMWqvZLDc1XGUT310H-6" value="Read Products" style="rounded=1;whiteSpace=wrap;html=1;" vertex="1" parent="WIyWlLk6GJQsqaUBKTNV-1">
          <mxGeometry x="140" y="320" width="120" height="30" as="geometry" />
        </mxCell>
        <mxCell id="20fMWqvZLDc1XGUT310H-58" style="edgeStyle=orthogonalEdgeStyle;rounded=0;orthogonalLoop=1;jettySize=auto;html=1;exitX=0.5;exitY=1;exitDx=0;exitDy=0;entryX=0.5;entryY=0;entryDx=0;entryDy=0;" edge="1" parent="WIyWlLk6GJQsqaUBKTNV-1" source="20fMWqvZLDc1XGUT310H-7" target="20fMWqvZLDc1XGUT310H-56">
          <mxGeometry relative="1" as="geometry" />
        </mxCell>
        <mxCell id="20fMWqvZLDc1XGUT310H-7" value="Delete Product" style="rounded=1;whiteSpace=wrap;html=1;" vertex="1" parent="WIyWlLk6GJQsqaUBKTNV-1">
          <mxGeometry x="580" y="320" width="120" height="30" as="geometry" />
        </mxCell>
        <mxCell id="20fMWqvZLDc1XGUT310H-62" style="edgeStyle=orthogonalEdgeStyle;rounded=0;orthogonalLoop=1;jettySize=auto;html=1;exitX=0.5;exitY=1;exitDx=0;exitDy=0;entryX=0;entryY=0.5;entryDx=0;entryDy=0;" edge="1" parent="WIyWlLk6GJQsqaUBKTNV-1" source="20fMWqvZLDc1XGUT310H-12" target="20fMWqvZLDc1XGUT310H-59">
          <mxGeometry relative="1" as="geometry" />
        </mxCell>
        <mxCell id="20fMWqvZLDc1XGUT310H-71" value="YES" style="edgeLabel;html=1;align=center;verticalAlign=middle;resizable=0;points=[];" vertex="1" connectable="0" parent="20fMWqvZLDc1XGUT310H-62">
          <mxGeometry x="-0.3697" y="3" relative="1" as="geometry">
            <mxPoint as="offset" />
          </mxGeometry>
        </mxCell>
        <mxCell id="20fMWqvZLDc1XGUT310H-65" style="edgeStyle=orthogonalEdgeStyle;rounded=0;orthogonalLoop=1;jettySize=auto;html=1;exitX=1;exitY=0.5;exitDx=0;exitDy=0;entryX=0;entryY=0.5;entryDx=0;entryDy=0;" edge="1" parent="WIyWlLk6GJQsqaUBKTNV-1" source="20fMWqvZLDc1XGUT310H-12" target="20fMWqvZLDc1XGUT310H-60">
          <mxGeometry relative="1" as="geometry">
            <Array as="points">
              <mxPoint x="270" y="430" />
              <mxPoint x="270" y="500" />
              <mxPoint x="390" y="500" />
              <mxPoint x="390" y="570" />
              <mxPoint x="450" y="570" />
              <mxPoint x="450" y="595" />
            </Array>
          </mxGeometry>
        </mxCell>
        <mxCell id="20fMWqvZLDc1XGUT310H-75" value="NO" style="edgeLabel;html=1;align=center;verticalAlign=middle;resizable=0;points=[];" vertex="1" connectable="0" parent="20fMWqvZLDc1XGUT310H-65">
          <mxGeometry x="-0.6462" relative="1" as="geometry">
            <mxPoint as="offset" />
          </mxGeometry>
        </mxCell>
        <mxCell id="20fMWqvZLDc1XGUT310H-12" value="Data Fetched ?" style="rhombus;whiteSpace=wrap;html=1;" vertex="1" parent="WIyWlLk6GJQsqaUBKTNV-1">
          <mxGeometry x="150" y="380" width="100" height="100" as="geometry" />
        </mxCell>
        <mxCell id="20fMWqvZLDc1XGUT310H-43" value="" style="ellipse;whiteSpace=wrap;html=1;aspect=fixed;fillColor=#000000;" vertex="1" parent="WIyWlLk6GJQsqaUBKTNV-1">
          <mxGeometry x="400" y="690" width="40" height="40" as="geometry" />
        </mxCell>
        <mxCell id="20fMWqvZLDc1XGUT310H-57" style="edgeStyle=orthogonalEdgeStyle;rounded=0;orthogonalLoop=1;jettySize=auto;html=1;exitX=0.5;exitY=1;exitDx=0;exitDy=0;entryX=0.5;entryY=0;entryDx=0;entryDy=0;" edge="1" parent="WIyWlLk6GJQsqaUBKTNV-1" source="20fMWqvZLDc1XGUT310H-52" target="20fMWqvZLDc1XGUT310H-55">
          <mxGeometry relative="1" as="geometry" />
        </mxCell>
        <mxCell id="20fMWqvZLDc1XGUT310H-52" value="Update Products" style="rounded=1;whiteSpace=wrap;html=1;" vertex="1" parent="WIyWlLk6GJQsqaUBKTNV-1">
          <mxGeometry x="360" y="320" width="120" height="30" as="geometry" />
        </mxCell>
        <mxCell id="20fMWqvZLDc1XGUT310H-53" style="edgeStyle=orthogonalEdgeStyle;rounded=0;orthogonalLoop=1;jettySize=auto;html=1;exitX=0.5;exitY=1;exitDx=0;exitDy=0;" edge="1" parent="WIyWlLk6GJQsqaUBKTNV-1" source="20fMWqvZLDc1XGUT310H-7" target="20fMWqvZLDc1XGUT310H-7">
          <mxGeometry relative="1" as="geometry" />
        </mxCell>
        <mxCell id="20fMWqvZLDc1XGUT310H-63" style="edgeStyle=orthogonalEdgeStyle;rounded=0;orthogonalLoop=1;jettySize=auto;html=1;exitX=0;exitY=0.5;exitDx=0;exitDy=0;entryX=0.5;entryY=0;entryDx=0;entryDy=0;" edge="1" parent="WIyWlLk6GJQsqaUBKTNV-1" source="20fMWqvZLDc1XGUT310H-55" target="20fMWqvZLDc1XGUT310H-59">
          <mxGeometry relative="1" as="geometry" />
        </mxCell>
        <mxCell id="20fMWqvZLDc1XGUT310H-70" value="YES" style="edgeLabel;html=1;align=center;verticalAlign=middle;resizable=0;points=[];" vertex="1" connectable="0" parent="20fMWqvZLDc1XGUT310H-63">
          <mxGeometry x="-0.2762" relative="1" as="geometry">
            <mxPoint as="offset" />
          </mxGeometry>
        </mxCell>
        <mxCell id="20fMWqvZLDc1XGUT310H-55" value="Product Updated ?" style="rhombus;whiteSpace=wrap;html=1;" vertex="1" parent="WIyWlLk6GJQsqaUBKTNV-1">
          <mxGeometry x="370" y="380" width="100" height="100" as="geometry" />
        </mxCell>
        <mxCell id="20fMWqvZLDc1XGUT310H-64" style="edgeStyle=orthogonalEdgeStyle;rounded=0;orthogonalLoop=1;jettySize=auto;html=1;exitX=0;exitY=0.5;exitDx=0;exitDy=0;entryX=1;entryY=0.5;entryDx=0;entryDy=0;" edge="1" parent="WIyWlLk6GJQsqaUBKTNV-1" source="20fMWqvZLDc1XGUT310H-56" target="20fMWqvZLDc1XGUT310H-59">
          <mxGeometry relative="1" as="geometry">
            <Array as="points">
              <mxPoint x="570" y="430" />
              <mxPoint x="570" y="500" />
              <mxPoint x="420" y="500" />
              <mxPoint x="420" y="595" />
            </Array>
          </mxGeometry>
        </mxCell>
        <mxCell id="20fMWqvZLDc1XGUT310H-72" value="YES" style="edgeLabel;html=1;align=center;verticalAlign=middle;resizable=0;points=[];" vertex="1" connectable="0" parent="20fMWqvZLDc1XGUT310H-64">
          <mxGeometry x="-0.0857" y="-1" relative="1" as="geometry">
            <mxPoint as="offset" />
          </mxGeometry>
        </mxCell>
        <mxCell id="20fMWqvZLDc1XGUT310H-67" style="edgeStyle=orthogonalEdgeStyle;rounded=0;orthogonalLoop=1;jettySize=auto;html=1;exitX=0.5;exitY=1;exitDx=0;exitDy=0;entryX=1;entryY=0.5;entryDx=0;entryDy=0;" edge="1" parent="WIyWlLk6GJQsqaUBKTNV-1" source="20fMWqvZLDc1XGUT310H-56" target="20fMWqvZLDc1XGUT310H-60">
          <mxGeometry relative="1" as="geometry" />
        </mxCell>
        <mxCell id="20fMWqvZLDc1XGUT310H-74" value="NO" style="edgeLabel;html=1;align=center;verticalAlign=middle;resizable=0;points=[];" vertex="1" connectable="0" parent="20fMWqvZLDc1XGUT310H-67">
          <mxGeometry x="-0.375" y="1" relative="1" as="geometry">
            <mxPoint as="offset" />
          </mxGeometry>
        </mxCell>
        <mxCell id="20fMWqvZLDc1XGUT310H-56" value="Product Deleted ?" style="rhombus;whiteSpace=wrap;html=1;" vertex="1" parent="WIyWlLk6GJQsqaUBKTNV-1">
          <mxGeometry x="590" y="380" width="100" height="100" as="geometry" />
        </mxCell>
        <mxCell id="20fMWqvZLDc1XGUT310H-68" style="edgeStyle=orthogonalEdgeStyle;rounded=0;orthogonalLoop=1;jettySize=auto;html=1;exitX=0.5;exitY=1;exitDx=0;exitDy=0;entryX=0.5;entryY=0;entryDx=0;entryDy=0;" edge="1" parent="WIyWlLk6GJQsqaUBKTNV-1" source="20fMWqvZLDc1XGUT310H-59" target="20fMWqvZLDc1XGUT310H-43">
          <mxGeometry relative="1" as="geometry" />
        </mxCell>
        <mxCell id="20fMWqvZLDc1XGUT310H-59" value="Show Success Message" style="rounded=1;whiteSpace=wrap;html=1;" vertex="1" parent="WIyWlLk6GJQsqaUBKTNV-1">
          <mxGeometry x="250" y="580" width="120" height="30" as="geometry" />
        </mxCell>
        <mxCell id="20fMWqvZLDc1XGUT310H-69" style="edgeStyle=orthogonalEdgeStyle;rounded=0;orthogonalLoop=1;jettySize=auto;html=1;exitX=0.5;exitY=1;exitDx=0;exitDy=0;entryX=0.5;entryY=0;entryDx=0;entryDy=0;" edge="1" parent="WIyWlLk6GJQsqaUBKTNV-1" source="20fMWqvZLDc1XGUT310H-60" target="20fMWqvZLDc1XGUT310H-43">
          <mxGeometry relative="1" as="geometry" />
        </mxCell>
        <mxCell id="20fMWqvZLDc1XGUT310H-60" value="Show Error Message" style="rounded=1;whiteSpace=wrap;html=1;" vertex="1" parent="WIyWlLk6GJQsqaUBKTNV-1">
          <mxGeometry x="475" y="580" width="120" height="30" as="geometry" />
        </mxCell>
        <mxCell id="20fMWqvZLDc1XGUT310H-66" style="edgeStyle=orthogonalEdgeStyle;rounded=0;orthogonalLoop=1;jettySize=auto;html=1;exitX=1;exitY=0.5;exitDx=0;exitDy=0;entryX=0.558;entryY=-0.067;entryDx=0;entryDy=0;entryPerimeter=0;" edge="1" parent="WIyWlLk6GJQsqaUBKTNV-1" source="20fMWqvZLDc1XGUT310H-55" target="20fMWqvZLDc1XGUT310H-60">
          <mxGeometry relative="1" as="geometry" />
        </mxCell>
        <mxCell id="20fMWqvZLDc1XGUT310H-73" value="NO" style="edgeLabel;html=1;align=center;verticalAlign=middle;resizable=0;points=[];" vertex="1" connectable="0" parent="20fMWqvZLDc1XGUT310H-66">
          <mxGeometry x="-0.5636" y="3" relative="1" as="geometry">
            <mxPoint as="offset" />
          </mxGeometry>
        </mxCell>
      </root>
    </mxGraphModel>
  </diagram>
</mxfile>
